{
  "header": {
    "PPQ": 480,
    "timeSignature": [
      4,
      4
    ],
    "bpm": 120,
    "name": ""
  },
  "tempo": [],
  "timeSignature": [
    {
      "absoluteTime": 0,
      "seconds": 0,
      "numerator": 4,
      "denominator": 2,
      "click": 24,
      "notesQ": 8
    }
  ],
  "startTime": 0,
  "duration": 73.74895833333332,
  "tracks": [
    {
      "startTime": 0,
      "duration": 73.74895833333332,
      "length": 419,
      "notes": [
        {
          "name": "E5",
          "midi": 76,
          "time": 0,
          "velocity": 0.6299212598425197,
          "duration": 0.12395833333333334
        },
        {
          "name": "C5",
          "midi": 72,
          "time": 0,
          "velocity": 0.6299212598425197,
          "duration": 0.12395833333333334
        },
        {
          "name": "E5",
          "midi": 76,
          "time": 0.125,
          "velocity": 0.6299212598425197,
          "duration": 0.24895833333333334
        },
        {
          "name": "C5",
          "midi": 72,
          "time": 0.125,
          "velocity": 0.6299212598425197,
          "duration": 0.24895833333333334
        },
        {
          "name": "E5",
          "midi": 76,
          "time": 0.375,
          "velocity": 0.6299212598425197,
          "duration": 0.12395833333333334
        },
        {
          "name": "C5",
          "midi": 72,
          "time": 0.375,
          "velocity": 0.6299212598425197,
          "duration": 0.12395833333333334
        },
        {
          "name": "C5",
          "midi": 72,
          "time": 0.625,
          "velocity": 0.6299212598425197,
          "duration": 0.12395833333333339
        },
        {
          "name": "E5",
          "midi": 76,
          "time": 0.7500000000000001,
          "velocity": 0.6299212598425197,
          "duration": 0.12395833333333328
        },
        {
          "name": "G5",
          "midi": 79,
          "time": 1,
          "velocity": 0.6299212598425197,
          "duration": 0.2489583333333334
        },
        {
          "name": "B4",
          "midi": 71,
          "time": 1,
          "velocity": 0.6299212598425197,
          "duration": 0.2489583333333334
        },
        {
          "name": "G4",
          "midi": 67,
          "time": 1.5,
          "velocity": 0.6299212598425197,
          "duration": 0.2489583333333334
        },
        {
          "name": "B3",
          "midi": 59,
          "time": 1.5,
          "velocity": 0.6299212598425197,
          "duration": 0.2489583333333334
        },
        {
          "name": "C5",
          "midi": 72,
          "time": 2,
          "velocity": 0.6299212598425197,
          "duration": 0.2489583333333334
        },
        {
          "name": "G4",
          "midi": 67,
          "time": 2.375,
          "velocity": 0.6299212598425197,
          "duration": 0.2489583333333334
        },
        {
          "name": "E4",
          "midi": 64,
          "time": 2.75,
          "velocity": 0.6299212598425197,
          "duration": 0.2489583333333334
        },
        {
          "name": "A4",
          "midi": 69,
          "time": 3.125,
          "velocity": 0.6299212598425197,
          "duration": 0.2489583333333334
        },
        {
          "name": "B4",
          "midi": 71,
          "time": 3.375,
          "velocity": 0.6299212598425197,
          "duration": 0.2489583333333334
        },
        {
          "name": "A#4",
          "midi": 70,
          "time": 3.625,
          "velocity": 0.6299212598425197,
          "duration": 0.12395833333333339
        },
        {
          "name": "A4",
          "midi": 69,
          "time": 3.75,
          "velocity": 0.6299212598425197,
          "duration": 0.12395833333333339
        },
        {
          "name": "G4",
          "midi": 67,
          "time": 4,
          "velocity": 0.6299212598425197,
          "duration": 0.16562500000000036
        },
        {
          "name": "E5",
          "midi": 76,
          "time": 4.166666666666667,
          "velocity": 0.6299212598425197,
          "duration": 0.16562500000000036
        },
        {
          "name": "G5",
          "midi": 79,
          "time": 4.333333333333334,
          "velocity": 0.6299212598425197,
          "duration": 0.16562500000000036
        },
        {
          "name": "A5",
          "midi": 81,
          "time": 4.500000000000001,
          "velocity": 0.6299212598425197,
          "duration": 0.2489583333333334
        },
        {
          "name": "F5",
          "midi": 77,
          "time": 4.750000000000001,
          "velocity": 0.6299212598425197,
          "duration": 0.12395833333333339
        },
        {
          "name": "G5",
          "midi": 79,
          "time": 4.875000000000001,
          "velocity": 0.6299212598425197,
          "duration": 0.12395833333333339
        },
        {
          "name": "E5",
          "midi": 76,
          "time": 5.125000000000001,
          "velocity": 0.6299212598425197,
          "duration": 0.2489583333333334
        },
        {
          "name": "C5",
          "midi": 72,
          "time": 5.375000000000001,
          "velocity": 0.6299212598425197,
          "duration": 0.12395833333333339
        },
        {
          "name": "D5",
          "midi": 74,
          "time": 5.500000000000001,
          "velocity": 0.6299212598425197,
          "duration": 0.12395833333333339
        },
        {
          "name": "B4",
          "midi": 71,
          "time": 5.625000000000001,
          "velocity": 0.6299212598425197,
          "duration": 0.12395833333333339
        },
        {
          "name": "C5",
          "midi": 72,
          "time": 6.000000000000001,
          "velocity": 0.6299212598425197,
          "duration": 0.2489583333333334
        },
        {
          "name": "G4",
          "midi": 67,
          "time": 6.375000000000001,
          "velocity": 0.6299212598425197,
          "duration": 0.2489583333333334
        },
        {
          "name": "E4",
          "midi": 64,
          "time": 6.750000000000001,
          "velocity": 0.6299212598425197,
          "duration": 0.2489583333333334
        },
        {
          "name": "A4",
          "midi": 69,
          "time": 7.125000000000001,
          "velocity": 0.6299212598425197,
          "duration": 0.2489583333333334
        },
        {
          "name": "B4",
          "midi": 71,
          "time": 7.375000000000001,
          "velocity": 0.6299212598425197,
          "duration": 0.2489583333333334
        },
        {
          "name": "A#4",
          "midi": 70,
          "time": 7.625000000000001,
          "velocity": 0.6299212598425197,
          "duration": 0.12395833333333339
        },
        {
          "name": "A4",
          "midi": 69,
          "time": 7.750000000000001,
          "velocity": 0.6299212598425197,
          "duration": 0.12395833333333339
        },
        {
          "name": "G4",
          "midi": 67,
          "time": 8.000000000000002,
          "velocity": 0.6299212598425197,
          "duration": 0.16562500000000036
        },
        {
          "name": "E5",
          "midi": 76,
          "time": 8.16666666666667,
          "velocity": 0.6299212598425197,
          "duration": 0.16562500000000036
        },
        {
          "name": "G5",
          "midi": 79,
          "time": 8.333333333333337,
          "velocity": 0.6299212598425197,
          "duration": 0.16562500000000036
        },
        {
          "name": "A5",
          "midi": 81,
          "time": 8.500000000000005,
          "velocity": 0.6299212598425197,
          "duration": 0.2489583333333325
        },
        {
          "name": "F5",
          "midi": 77,
          "time": 8.750000000000005,
          "velocity": 0.6299212598425197,
          "duration": 0.1239583333333325
        },
        {
          "name": "G5",
          "midi": 79,
          "time": 8.875000000000005,
          "velocity": 0.6299212598425197,
          "duration": 0.1239583333333325
        },
        {
          "name": "E5",
          "midi": 76,
          "time": 9.125000000000005,
          "velocity": 0.6299212598425197,
          "duration": 0.2489583333333325
        },
        {
          "name": "C5",
          "midi": 72,
          "time": 9.375000000000005,
          "velocity": 0.6299212598425197,
          "duration": 0.1239583333333325
        },
        {
          "name": "D5",
          "midi": 74,
          "time": 9.500000000000005,
          "velocity": 0.6299212598425197,
          "duration": 0.1239583333333325
        },
        {
          "name": "B4",
          "midi": 71,
          "time": 9.625000000000005,
          "velocity": 0.6299212598425197,
          "duration": 0.1239583333333325
        },
        {
          "name": "C4",
          "midi": 60,
          "time": 10.000000000000005,
          "velocity": 0.6299212598425197,
          "duration": 0.1239583333333325
        },
        {
          "name": "G5",
          "midi": 79,
          "time": 10.250000000000005,
          "velocity": 0.6299212598425197,
          "duration": 0.1239583333333325
        },
        {
          "name": "F#5",
          "midi": 78,
          "time": 10.375000000000005,
          "velocity": 0.6299212598425197,
          "duration": 0.1239583333333325
        },
        {
          "name": "F5",
          "midi": 77,
          "time": 10.500000000000005,
          "velocity": 0.6299212598425197,
          "duration": 0.1239583333333325
        },
        {
          "name": "D#5",
          "midi": 75,
          "time": 10.625000000000005,
          "velocity": 0.6299212598425197,
          "duration": 0.1239583333333325
        },
        {
          "name": "E5",
          "midi": 76,
          "time": 10.875000000000005,
          "velocity": 0.6299212598425197,
          "duration": 0.1239583333333325
        },
        {
          "name": "C5",
          "midi": 72,
          "time": 10.875000000000005,
          "velocity": 0.6299212598425197,
          "duration": 0.1239583333333325
        },
        {
          "name": "G#4",
          "midi": 68,
          "time": 11.125000000000005,
          "velocity": 0.6299212598425197,
          "duration": 0.1239583333333325
        },
        {
          "name": "A4",
          "midi": 69,
          "time": 11.250000000000005,
          "velocity": 0.6299212598425197,
          "duration": 0.1239583333333325
        },
        {
          "name": "C5",
          "midi": 72,
          "time": 11.375000000000005,
          "velocity": 0.6299212598425197,
          "duration": 0.1239583333333325
        },
        {
          "name": "A4",
          "midi": 69,
          "time": 11.625000000000005,
          "velocity": 0.6299212598425197,
          "duration": 0.1239583333333325
        },
        {
          "name": "C5",
          "midi": 72,
          "time": 11.750000000000005,
          "velocity": 0.6299212598425197,
          "duration": 0.1239583333333325
        },
        {
          "name": "D5",
          "midi": 74,
          "time": 11.875000000000005,
          "velocity": 0.6299212598425197,
          "duration": 0.1239583333333325
        },
        {
          "name": "C4",
          "midi": 60,
          "time": 12.000000000000005,
          "velocity": 0.6299212598425197,
          "duration": 0.1239583333333325
        },
        {
          "name": "G5",
          "midi": 79,
          "time": 12.250000000000005,
          "velocity": 0.6299212598425197,
          "duration": 0.1239583333333325
        },
        {
          "name": "F#5",
          "midi": 78,
          "time": 12.375000000000005,
          "velocity": 0.6299212598425197,
          "duration": 0.1239583333333325
        },
        {
          "name": "F5",
          "midi": 77,
          "time": 12.500000000000005,
          "velocity": 0.6299212598425197,
          "duration": 0.1239583333333325
        },
        {
          "name": "D#5",
          "midi": 75,
          "time": 12.625000000000005,
          "velocity": 0.6299212598425197,
          "duration": 0.1239583333333325
        },
        {
          "name": "E5",
          "midi": 76,
          "time": 12.875000000000005,
          "velocity": 0.6299212598425197,
          "duration": 0.1239583333333325
        },
        {
          "name": "C5",
          "midi": 72,
          "time": 12.875000000000005,
          "velocity": 0.6299212598425197,
          "duration": 0.1239583333333325
        },
        {
          "name": "C6",
          "midi": 84,
          "time": 13.125000000000005,
          "velocity": 0.6299212598425197,
          "duration": 0.1239583333333325
        },
        {
          "name": "E5",
          "midi": 76,
          "time": 13.125000000000005,
          "velocity": 0.6299212598425197,
          "duration": 0.1239583333333325
        },
        {
          "name": "C6",
          "midi": 84,
          "time": 13.375000000000005,
          "velocity": 0.6299212598425197,
          "duration": 0.1239583333333325
        },
        {
          "name": "E5",
          "midi": 76,
          "time": 13.375000000000005,
          "velocity": 0.6299212598425197,
          "duration": 0.1239583333333325
        },
        {
          "name": "C6",
          "midi": 84,
          "time": 13.500000000000005,
          "velocity": 0.6299212598425197,
          "duration": 0.1239583333333325
        },
        {
          "name": "E5",
          "midi": 76,
          "time": 13.500000000000005,
          "velocity": 0.6299212598425197,
          "duration": 0.1239583333333325
        },
        {
          "name": "G4",
          "midi": 67,
          "time": 13.750000000000005,
          "velocity": 0.6299212598425197,
          "duration": 0.1239583333333325
        },
        {
          "name": "C4",
          "midi": 60,
          "time": 14.000000000000005,
          "velocity": 0.6299212598425197,
          "duration": 0.1239583333333325
        },
        {
          "name": "G5",
          "midi": 79,
          "time": 14.250000000000005,
          "velocity": 0.6299212598425197,
          "duration": 0.1239583333333325
        },
        {
          "name": "F#5",
          "midi": 78,
          "time": 14.375000000000005,
          "velocity": 0.6299212598425197,
          "duration": 0.1239583333333325
        },
        {
          "name": "F5",
          "midi": 77,
          "time": 14.500000000000005,
          "velocity": 0.6299212598425197,
          "duration": 0.1239583333333325
        },
        {
          "name": "D#5",
          "midi": 75,
          "time": 14.625000000000005,
          "velocity": 0.6299212598425197,
          "duration": 0.1239583333333325
        },
        {
          "name": "E5",
          "midi": 76,
          "time": 14.875000000000005,
          "velocity": 0.6299212598425197,
          "duration": 0.1239583333333325
        },
        {
          "name": "C5",
          "midi": 72,
          "time": 14.875000000000005,
          "velocity": 0.6299212598425197,
          "duration": 0.1239583333333325
        },
        {
          "name": "G#4",
          "midi": 68,
          "time": 15.125000000000005,
          "velocity": 0.6299212598425197,
          "duration": 0.1239583333333325
        },
        {
          "name": "A4",
          "midi": 69,
          "time": 15.250000000000005,
          "velocity": 0.6299212598425197,
          "duration": 0.1239583333333325
        },
        {
          "name": "C5",
          "midi": 72,
          "time": 15.375000000000005,
          "velocity": 0.6299212598425197,
          "duration": 0.1239583333333325
        },
        {
          "name": "A4",
          "midi": 69,
          "time": 15.625000000000005,
          "velocity": 0.6299212598425197,
          "duration": 0.1239583333333325
        },
        {
          "name": "C5",
          "midi": 72,
          "time": 15.750000000000005,
          "velocity": 0.6299212598425197,
          "duration": 0.1239583333333325
        },
        {
          "name": "D5",
          "midi": 74,
          "time": 15.875000000000005,
          "velocity": 0.6299212598425197,
          "duration": 0.1239583333333325
        },
        {
          "name": "D#5",
          "midi": 75,
          "time": 16.250000000000004,
          "velocity": 0.6299212598425197,
          "duration": 0.12395833333333428
        },
        {
          "name": "G#4",
          "midi": 68,
          "time": 16.250000000000004,
          "velocity": 0.6299212598425197,
          "duration": 0.12395833333333428
        },
        {
          "name": "D5",
          "midi": 74,
          "time": 16.625000000000004,
          "velocity": 0.6299212598425197,
          "duration": 0.12395833333333428
        },
        {
          "name": "G4",
          "midi": 67,
          "time": 16.625000000000004,
          "velocity": 0.6299212598425197,
          "duration": 0.12395833333333428
        },
        {
          "name": "C5",
          "midi": 72,
          "time": 17.000000000000004,
          "velocity": 0.6299212598425197,
          "duration": 0.12395833333333428
        },
        {
          "name": "E4",
          "midi": 64,
          "time": 17.000000000000004,
          "velocity": 0.6299212598425197,
          "duration": 0.12395833333333428
        },
        {
          "name": "G4",
          "midi": 67,
          "time": 17.375000000000004,
          "velocity": 0.6299212598425197,
          "duration": 0.12395833333333428
        },
        {
          "name": "G4",
          "midi": 67,
          "time": 17.500000000000004,
          "velocity": 0.6299212598425197,
          "duration": 0.12395833333333428
        },
        {
          "name": "C4",
          "midi": 60,
          "time": 17.750000000000004,
          "velocity": 0.6299212598425197,
          "duration": 0.12395833333333428
        },
        {
          "name": "C4",
          "midi": 60,
          "time": 18.000000000000004,
          "velocity": 0.6299212598425197,
          "duration": 0.12395833333333428
        },
        {
          "name": "G5",
          "midi": 79,
          "time": 18.250000000000004,
          "velocity": 0.6299212598425197,
          "duration": 0.12395833333333428
        },
        {
          "name": "F#5",
          "midi": 78,
          "time": 18.375000000000004,
          "velocity": 0.6299212598425197,
          "duration": 0.12395833333333428
        },
        {
          "name": "F5",
          "midi": 77,
          "time": 18.500000000000004,
          "velocity": 0.6299212598425197,
          "duration": 0.12395833333333428
        },
        {
          "name": "D#5",
          "midi": 75,
          "time": 18.625000000000004,
          "velocity": 0.6299212598425197,
          "duration": 0.12395833333333428
        },
        {
          "name": "E5",
          "midi": 76,
          "time": 18.875000000000004,
          "velocity": 0.6299212598425197,
          "duration": 0.12395833333333428
        },
        {
          "name": "C5",
          "midi": 72,
          "time": 18.875000000000004,
          "velocity": 0.6299212598425197,
          "duration": 0.12395833333333428
        },
        {
          "name": "G#4",
          "midi": 68,
          "time": 19.125000000000004,
          "velocity": 0.6299212598425197,
          "duration": 0.12395833333333428
        },
        {
          "name": "A4",
          "midi": 69,
          "time": 19.250000000000004,
          "velocity": 0.6299212598425197,
          "duration": 0.12395833333333428
        },
        {
          "name": "C5",
          "midi": 72,
          "time": 19.375000000000004,
          "velocity": 0.6299212598425197,
          "duration": 0.12395833333333428
        },
        {
          "name": "A4",
          "midi": 69,
          "time": 19.625000000000004,
          "velocity": 0.6299212598425197,
          "duration": 0.12395833333333428
        },
        {
          "name": "C5",
          "midi": 72,
          "time": 19.750000000000004,
          "velocity": 0.6299212598425197,
          "duration": 0.12395833333333428
        },
        {
          "name": "D5",
          "midi": 74,
          "time": 19.875000000000004,
          "velocity": 0.6299212598425197,
          "duration": 0.12395833333333428
        },
        {
          "name": "C4",
          "midi": 60,
          "time": 20.000000000000004,
          "velocity": 0.6299212598425197,
          "duration": 0.12395833333333428
        },
        {
          "name": "G5",
          "midi": 79,
          "time": 20.250000000000004,
          "velocity": 0.6299212598425197,
          "duration": 0.12395833333333428
        },
        {
          "name": "F#5",
          "midi": 78,
          "time": 20.375000000000004,
          "velocity": 0.6299212598425197,
          "duration": 0.12395833333333428
        },
        {
          "name": "F5",
          "midi": 77,
          "time": 20.500000000000004,
          "velocity": 0.6299212598425197,
          "duration": 0.12395833333333428
        },
        {
          "name": "D#5",
          "midi": 75,
          "time": 20.625000000000004,
          "velocity": 0.6299212598425197,
          "duration": 0.12395833333333428
        },
        {
          "name": "E5",
          "midi": 76,
          "time": 20.875000000000004,
          "velocity": 0.6299212598425197,
          "duration": 0.12395833333333428
        },
        {
          "name": "C5",
          "midi": 72,
          "time": 20.875000000000004,
          "velocity": 0.6299212598425197,
          "duration": 0.12395833333333428
        },
        {
          "name": "C6",
          "midi": 84,
          "time": 21.125000000000004,
          "velocity": 0.6299212598425197,
          "duration": 0.12395833333333428
        },
        {
          "name": "E5",
          "midi": 76,
          "time": 21.125000000000004,
          "velocity": 0.6299212598425197,
          "duration": 0.12395833333333428
        },
        {
          "name": "C6",
          "midi": 84,
          "time": 21.375000000000004,
          "velocity": 0.6299212598425197,
          "duration": 0.12395833333333428
        },
        {
          "name": "E5",
          "midi": 76,
          "time": 21.375000000000004,
          "velocity": 0.6299212598425197,
          "duration": 0.12395833333333428
        },
        {
          "name": "C6",
          "midi": 84,
          "time": 21.500000000000004,
          "velocity": 0.6299212598425197,
          "duration": 0.12395833333333428
        },
        {
          "name": "E5",
          "midi": 76,
          "time": 21.500000000000004,
          "velocity": 0.6299212598425197,
          "duration": 0.12395833333333428
        },
        {
          "name": "G4",
          "midi": 67,
          "time": 21.750000000000004,
          "velocity": 0.6299212598425197,
          "duration": 0.12395833333333428
        },
        {
          "name": "C4",
          "midi": 60,
          "time": 22.000000000000004,
          "velocity": 0.6299212598425197,
          "duration": 0.12395833333333428
        },
        {
          "name": "G5",
          "midi": 79,
          "time": 22.250000000000004,
          "velocity": 0.6299212598425197,
          "duration": 0.12395833333333428
        },
        {
          "name": "F#5",
          "midi": 78,
          "time": 22.375000000000004,
          "velocity": 0.6299212598425197,
          "duration": 0.12395833333333428
        },
        {
          "name": "F5",
          "midi": 77,
          "time": 22.500000000000004,
          "velocity": 0.6299212598425197,
          "duration": 0.12395833333333428
        },
        {
          "name": "D#5",
          "midi": 75,
          "time": 22.625000000000004,
          "velocity": 0.6299212598425197,
          "duration": 0.12395833333333428
        },
        {
          "name": "E5",
          "midi": 76,
          "time": 22.875000000000004,
          "velocity": 0.6299212598425197,
          "duration": 0.12395833333333428
        },
        {
          "name": "C5",
          "midi": 72,
          "time": 22.875000000000004,
          "velocity": 0.6299212598425197,
          "duration": 0.12395833333333428
        },
        {
          "name": "G#4",
          "midi": 68,
          "time": 23.125000000000004,
          "velocity": 0.6299212598425197,
          "duration": 0.12395833333333428
        },
        {
          "name": "A4",
          "midi": 69,
          "time": 23.250000000000004,
          "velocity": 0.6299212598425197,
          "duration": 0.12395833333333428
        },
        {
          "name": "C5",
          "midi": 72,
          "time": 23.375000000000004,
          "velocity": 0.6299212598425197,
          "duration": 0.12395833333333428
        },
        {
          "name": "A4",
          "midi": 69,
          "time": 23.625000000000004,
          "velocity": 0.6299212598425197,
          "duration": 0.12395833333333428
        },
        {
          "name": "C5",
          "midi": 72,
          "time": 23.750000000000004,
          "velocity": 0.6299212598425197,
          "duration": 0.12395833333333428
        },
        {
          "name": "D5",
          "midi": 74,
          "time": 23.875000000000004,
          "velocity": 0.6299212598425197,
          "duration": 0.12395833333333428
        },
        {
          "name": "D#5",
          "midi": 75,
          "time": 24.250000000000004,
          "velocity": 0.6299212598425197,
          "duration": 0.12395833333333428
        },
        {
          "name": "G#4",
          "midi": 68,
          "time": 24.250000000000004,
          "velocity": 0.6299212598425197,
          "duration": 0.12395833333333428
        },
        {
          "name": "D5",
          "midi": 74,
          "time": 24.625000000000004,
          "velocity": 0.6299212598425197,
          "duration": 0.12395833333333428
        },
        {
          "name": "G4",
          "midi": 67,
          "time": 24.625000000000004,
          "velocity": 0.6299212598425197,
          "duration": 0.12395833333333428
        },
        {
          "name": "C5",
          "midi": 72,
          "time": 25.000000000000004,
          "velocity": 0.6299212598425197,
          "duration": 0.12395833333333428
        },
        {
          "name": "E4",
          "midi": 64,
          "time": 25.000000000000004,
          "velocity": 0.6299212598425197,
          "duration": 0.12395833333333428
        },
        {
          "name": "G4",
          "midi": 67,
          "time": 25.375000000000004,
          "velocity": 0.6299212598425197,
          "duration": 0.12395833333333428
        },
        {
          "name": "G4",
          "midi": 67,
          "time": 25.500000000000004,
          "velocity": 0.6299212598425197,
          "duration": 0.12395833333333428
        },
        {
          "name": "C4",
          "midi": 60,
          "time": 25.750000000000004,
          "velocity": 0.6299212598425197,
          "duration": 0.12395833333333428
        },
        {
          "name": "C5",
          "midi": 72,
          "time": 26.000000000000004,
          "velocity": 0.6299212598425197,
          "duration": 0.12395833333333428
        },
        {
          "name": "E4",
          "midi": 64,
          "time": 26.000000000000004,
          "velocity": 0.6299212598425197,
          "duration": 0.12395833333333428
        },
        {
          "name": "C5",
          "midi": 72,
          "time": 26.125000000000004,
          "velocity": 0.6299212598425197,
          "duration": 0.12395833333333428
        },
        {
          "name": "C5",
          "midi": 72,
          "time": 26.375000000000004,
          "velocity": 0.6299212598425197,
          "duration": 0.12395833333333428
        },
        {
          "name": "C5",
          "midi": 72,
          "time": 26.625000000000004,
          "velocity": 0.6299212598425197,
          "duration": 0.12395833333333428
        },
        {
          "name": "D5",
          "midi": 74,
          "time": 26.750000000000004,
          "velocity": 0.6299212598425197,
          "duration": 0.12395833333333428
        },
        {
          "name": "E5",
          "midi": 76,
          "time": 27.000000000000004,
          "velocity": 0.6299212598425197,
          "duration": 0.12395833333333428
        },
        {
          "name": "C5",
          "midi": 72,
          "time": 27.125000000000004,
          "velocity": 0.6299212598425197,
          "duration": 0.12395833333333428
        },
        {
          "name": "A4",
          "midi": 69,
          "time": 27.375000000000004,
          "velocity": 0.6299212598425197,
          "duration": 0.12395833333333428
        },
        {
          "name": "G4",
          "midi": 67,
          "time": 27.500000000000004,
          "velocity": 0.6299212598425197,
          "duration": 0.12395833333333428
        },
        {
          "name": "C4",
          "midi": 60,
          "time": 27.750000000000004,
          "velocity": 0.6299212598425197,
          "duration": 0.12395833333333428
        },
        {
          "name": "C5",
          "midi": 72,
          "time": 28.000000000000004,
          "velocity": 0.6299212598425197,
          "duration": 0.12395833333333428
        },
        {
          "name": "E4",
          "midi": 64,
          "time": 28.000000000000004,
          "velocity": 0.6299212598425197,
          "duration": 0.12395833333333428
        },
        {
          "name": "C5",
          "midi": 72,
          "time": 28.125000000000004,
          "velocity": 0.6299212598425197,
          "duration": 0.12395833333333428
        },
        {
          "name": "C5",
          "midi": 72,
          "time": 28.375000000000004,
          "velocity": 0.6299212598425197,
          "duration": 0.12395833333333428
        },
        {
          "name": "C5",
          "midi": 72,
          "time": 28.625000000000004,
          "velocity": 0.6299212598425197,
          "duration": 0.12395833333333428
        },
        {
          "name": "D5",
          "midi": 74,
          "time": 28.750000000000004,
          "velocity": 0.6299212598425197,
          "duration": 0.12395833333333428
        },
        {
          "name": "E5",
          "midi": 76,
          "time": 28.875000000000004,
          "velocity": 0.6299212598425197,
          "duration": 0.12395833333333428
        },
        {
          "name": "G4",
          "midi": 67,
          "time": 29.000000000000004,
          "velocity": 0.6299212598425197,
          "duration": 0.12395833333333428
        },
        {
          "name": "C4",
          "midi": 60,
          "time": 29.375000000000004,
          "velocity": 0.6299212598425197,
          "duration": 0.12395833333333428
        },
        {
          "name": "C4",
          "midi": 60,
          "time": 29.750000000000004,
          "velocity": 0.6299212598425197,
          "duration": 0.12395833333333428
        },
        {
          "name": "C5",
          "midi": 72,
          "time": 30.000000000000004,
          "velocity": 0.6299212598425197,
          "duration": 0.12395833333333428
        },
        {
          "name": "E4",
          "midi": 64,
          "time": 30.000000000000004,
          "velocity": 0.6299212598425197,
          "duration": 0.12395833333333428
        },
        {
          "name": "C5",
          "midi": 72,
          "time": 30.125000000000004,
          "velocity": 0.6299212598425197,
          "duration": 0.12395833333333428
        },
        {
          "name": "C5",
          "midi": 72,
          "time": 30.375000000000004,
          "velocity": 0.6299212598425197,
          "duration": 0.12395833333333428
        },
        {
          "name": "C5",
          "midi": 72,
          "time": 30.625000000000004,
          "velocity": 0.6299212598425197,
          "duration": 0.12395833333333428
        },
        {
          "name": "D5",
          "midi": 74,
          "time": 30.750000000000004,
          "velocity": 0.6299212598425197,
          "duration": 0.12395833333333428
        },
        {
          "name": "E5",
          "midi": 76,
          "time": 31.000000000000004,
          "velocity": 0.6299212598425197,
          "duration": 0.12395833333333428
        },
        {
          "name": "C5",
          "midi": 72,
          "time": 31.125000000000004,
          "velocity": 0.6299212598425197,
          "duration": 0.12395833333333428
        },
        {
          "name": "A4",
          "midi": 69,
          "time": 31.375000000000004,
          "velocity": 0.6299212598425197,
          "duration": 0.12395833333333428
        },
        {
          "name": "G4",
          "midi": 67,
          "time": 31.500000000000004,
          "velocity": 0.6299212598425197,
          "duration": 0.12395833333333428
        },
        {
          "name": "C4",
          "midi": 60,
          "time": 31.750000000000004,
          "velocity": 0.6299212598425197,
          "duration": 0.12395833333333428
        },
        {
          "name": "E5",
          "midi": 76,
          "time": 32.00000000000001,
          "velocity": 0.6299212598425197,
          "duration": 0.12395833333333428
        },
        {
          "name": "C5",
          "midi": 72,
          "time": 32.00000000000001,
          "velocity": 0.6299212598425197,
          "duration": 0.12395833333333428
        },
        {
          "name": "E5",
          "midi": 76,
          "time": 32.12500000000001,
          "velocity": 0.6299212598425197,
          "duration": 0.12395833333333428
        },
        {
          "name": "C5",
          "midi": 72,
          "time": 32.12500000000001,
          "velocity": 0.6299212598425197,
          "duration": 0.12395833333333428
        },
        {
          "name": "E5",
          "midi": 76,
          "time": 32.37500000000001,
          "velocity": 0.6299212598425197,
          "duration": 0.12395833333333428
        },
        {
          "name": "C5",
          "midi": 72,
          "time": 32.37500000000001,
          "velocity": 0.6299212598425197,
          "duration": 0.12395833333333428
        },
        {
          "name": "C5",
          "midi": 72,
          "time": 32.62500000000001,
          "velocity": 0.6299212598425197,
          "duration": 0.12395833333333428
        },
        {
          "name": "E5",
          "midi": 76,
          "time": 32.75000000000001,
          "velocity": 0.6299212598425197,
          "duration": 0.12395833333333428
        },
        {
          "name": "G5",
          "midi": 79,
          "time": 33.00000000000001,
          "velocity": 0.6299212598425197,
          "duration": 0.24895833333333428
        },
        {
          "name": "B4",
          "midi": 71,
          "time": 33.00000000000001,
          "velocity": 0.6299212598425197,
          "duration": 0.24895833333333428
        },
        {
          "name": "G4",
          "midi": 67,
          "time": 33.50000000000001,
          "velocity": 0.6299212598425197,
          "duration": 0.24895833333333428
        },
        {
          "name": "B3",
          "midi": 59,
          "time": 33.50000000000001,
          "velocity": 0.6299212598425197,
          "duration": 0.24895833333333428
        },
        {
          "name": "C5",
          "midi": 72,
          "time": 34.00000000000001,
          "velocity": 0.6299212598425197,
          "duration": 0.24895833333333428
        },
        {
          "name": "G4",
          "midi": 67,
          "time": 34.37500000000001,
          "velocity": 0.6299212598425197,
          "duration": 0.24895833333333428
        },
        {
          "name": "E4",
          "midi": 64,
          "time": 34.75000000000001,
          "velocity": 0.6299212598425197,
          "duration": 0.24895833333333428
        },
        {
          "name": "A4",
          "midi": 69,
          "time": 35.12500000000001,
          "velocity": 0.6299212598425197,
          "duration": 0.24895833333333428
        },
        {
          "name": "B4",
          "midi": 71,
          "time": 35.37500000000001,
          "velocity": 0.6299212598425197,
          "duration": 0.24895833333333428
        },
        {
          "name": "A#4",
          "midi": 70,
          "time": 35.62500000000001,
          "velocity": 0.6299212598425197,
          "duration": 0.12395833333333428
        },
        {
          "name": "A4",
          "midi": 69,
          "time": 35.75000000000001,
          "velocity": 0.6299212598425197,
          "duration": 0.12395833333333428
        },
        {
          "name": "G4",
          "midi": 67,
          "time": 36.00000000000001,
          "velocity": 0.6299212598425197,
          "duration": 0.16562499999999858
        },
        {
          "name": "E5",
          "midi": 76,
          "time": 36.16666666666667,
          "velocity": 0.6299212598425197,
          "duration": 0.16562499999999858
        },
        {
          "name": "G5",
          "midi": 79,
          "time": 36.333333333333336,
          "velocity": 0.6299212598425197,
          "duration": 0.16562499999999858
        },
        {
          "name": "A5",
          "midi": 81,
          "time": 36.5,
          "velocity": 0.6299212598425197,
          "duration": 0.24895833333333428
        },
        {
          "name": "F5",
          "midi": 77,
          "time": 36.75,
          "velocity": 0.6299212598425197,
          "duration": 0.12395833333333428
        },
        {
          "name": "G5",
          "midi": 79,
          "time": 36.875,
          "velocity": 0.6299212598425197,
          "duration": 0.12395833333333428
        },
        {
          "name": "E5",
          "midi": 76,
          "time": 37.125,
          "velocity": 0.6299212598425197,
          "duration": 0.24895833333333428
        },
        {
          "name": "C5",
          "midi": 72,
          "time": 37.375,
          "velocity": 0.6299212598425197,
          "duration": 0.12395833333333428
        },
        {
          "name": "D5",
          "midi": 74,
          "time": 37.5,
          "velocity": 0.6299212598425197,
          "duration": 0.12395833333333428
        },
        {
          "name": "B4",
          "midi": 71,
          "time": 37.625,
          "velocity": 0.6299212598425197,
          "duration": 0.12395833333333428
        },
        {
          "name": "C5",
          "midi": 72,
          "time": 38,
          "velocity": 0.6299212598425197,
          "duration": 0.24895833333333428
        },
        {
          "name": "G4",
          "midi": 67,
          "time": 38.375,
          "velocity": 0.6299212598425197,
          "duration": 0.24895833333333428
        },
        {
          "name": "E4",
          "midi": 64,
          "time": 38.75,
          "velocity": 0.6299212598425197,
          "duration": 0.24895833333333428
        },
        {
          "name": "A4",
          "midi": 69,
          "time": 39.125,
          "velocity": 0.6299212598425197,
          "duration": 0.24895833333333428
        },
        {
          "name": "B4",
          "midi": 71,
          "time": 39.375,
          "velocity": 0.6299212598425197,
          "duration": 0.24895833333333428
        },
        {
          "name": "A#4",
          "midi": 70,
          "time": 39.625,
          "velocity": 0.6299212598425197,
          "duration": 0.12395833333333428
        },
        {
          "name": "A4",
          "midi": 69,
          "time": 39.75,
          "velocity": 0.6299212598425197,
          "duration": 0.12395833333333428
        },
        {
          "name": "G4",
          "midi": 67,
          "time": 40,
          "velocity": 0.6299212598425197,
          "duration": 0.16562499999999858
        },
        {
          "name": "E5",
          "midi": 76,
          "time": 40.166666666666664,
          "velocity": 0.6299212598425197,
          "duration": 0.16562499999999858
        },
        {
          "name": "G5",
          "midi": 79,
          "time": 40.33333333333333,
          "velocity": 0.6299212598425197,
          "duration": 0.16562499999999858
        },
        {
          "name": "A5",
          "midi": 81,
          "time": 40.49999999999999,
          "velocity": 0.6299212598425197,
          "duration": 0.24895833333333428
        },
        {
          "name": "F5",
          "midi": 77,
          "time": 40.74999999999999,
          "velocity": 0.6299212598425197,
          "duration": 0.12395833333333428
        },
        {
          "name": "G5",
          "midi": 79,
          "time": 40.87499999999999,
          "velocity": 0.6299212598425197,
          "duration": 0.12395833333333428
        },
        {
          "name": "E5",
          "midi": 76,
          "time": 41.12499999999999,
          "velocity": 0.6299212598425197,
          "duration": 0.24895833333333428
        },
        {
          "name": "C5",
          "midi": 72,
          "time": 41.37499999999999,
          "velocity": 0.6299212598425197,
          "duration": 0.12395833333333428
        },
        {
          "name": "D5",
          "midi": 74,
          "time": 41.49999999999999,
          "velocity": 0.6299212598425197,
          "duration": 0.12395833333333428
        },
        {
          "name": "B4",
          "midi": 71,
          "time": 41.62499999999999,
          "velocity": 0.6299212598425197,
          "duration": 0.12395833333333428
        },
        {
          "name": "E5",
          "midi": 76,
          "time": 41.99999999999999,
          "velocity": 0.6299212598425197,
          "duration": 0.12395833333333428
        },
        {
          "name": "C5",
          "midi": 72,
          "time": 42.12499999999999,
          "velocity": 0.6299212598425197,
          "duration": 0.12395833333333428
        },
        {
          "name": "G4",
          "midi": 67,
          "time": 42.37499999999999,
          "velocity": 0.6299212598425197,
          "duration": 0.24895833333333428
        },
        {
          "name": "G#4",
          "midi": 68,
          "time": 42.74999999999999,
          "velocity": 0.6299212598425197,
          "duration": 0.24895833333333428
        },
        {
          "name": "A4",
          "midi": 69,
          "time": 42.99999999999999,
          "velocity": 0.6299212598425197,
          "duration": 0.12395833333333428
        },
        {
          "name": "F5",
          "midi": 77,
          "time": 43.12499999999999,
          "velocity": 0.6299212598425197,
          "duration": 0.12395833333333428
        },
        {
          "name": "F5",
          "midi": 77,
          "time": 43.37499999999999,
          "velocity": 0.6299212598425197,
          "duration": 0.12395833333333428
        },
        {
          "name": "A4",
          "midi": 69,
          "time": 43.49999999999999,
          "velocity": 0.6299212598425197,
          "duration": 0.12395833333333428
        },
        {
          "name": "C4",
          "midi": 60,
          "time": 43.74999999999999,
          "velocity": 0.6299212598425197,
          "duration": 0.12395833333333428
        },
        {
          "name": "B4",
          "midi": 71,
          "time": 43.99999999999999,
          "velocity": 0.6299212598425197,
          "duration": 0.16562499999999858
        },
        {
          "name": "G4",
          "midi": 67,
          "time": 43.99999999999999,
          "velocity": 0.6299212598425197,
          "duration": 0.16562499999999858
        },
        {
          "name": "A5",
          "midi": 81,
          "time": 44.16666666666666,
          "velocity": 0.6299212598425197,
          "duration": 0.16562499999999858
        },
        {
          "name": "F5",
          "midi": 77,
          "time": 44.16666666666666,
          "velocity": 0.6299212598425197,
          "duration": 0.16562499999999858
        },
        {
          "name": "A5",
          "midi": 81,
          "time": 44.33333333333332,
          "velocity": 0.6299212598425197,
          "duration": 0.16562499999999858
        },
        {
          "name": "F5",
          "midi": 77,
          "time": 44.33333333333332,
          "velocity": 0.6299212598425197,
          "duration": 0.16562499999999858
        },
        {
          "name": "A5",
          "midi": 81,
          "time": 44.499999999999986,
          "velocity": 0.6299212598425197,
          "duration": 0.16562499999999858
        },
        {
          "name": "F5",
          "midi": 77,
          "time": 44.499999999999986,
          "velocity": 0.6299212598425197,
          "duration": 0.16562499999999858
        },
        {
          "name": "G5",
          "midi": 79,
          "time": 44.66666666666665,
          "velocity": 0.6299212598425197,
          "duration": 0.16562499999999858
        },
        {
          "name": "B4",
          "midi": 71,
          "time": 44.66666666666665,
          "velocity": 0.6299212598425197,
          "duration": 0.16562499999999858
        },
        {
          "name": "F5",
          "midi": 77,
          "time": 44.833333333333314,
          "velocity": 0.6299212598425197,
          "duration": 0.16562499999999858
        },
        {
          "name": "E5",
          "midi": 76,
          "time": 44.99999999999998,
          "velocity": 0.6299212598425197,
          "duration": 0.12395833333333428
        },
        {
          "name": "C5",
          "midi": 72,
          "time": 45.12499999999998,
          "velocity": 0.6299212598425197,
          "duration": 0.12395833333333428
        },
        {
          "name": "A4",
          "midi": 69,
          "time": 45.37499999999998,
          "velocity": 0.6299212598425197,
          "duration": 0.12395833333333428
        },
        {
          "name": "G4",
          "midi": 67,
          "time": 45.49999999999998,
          "velocity": 0.6299212598425197,
          "duration": 0.12395833333333428
        },
        {
          "name": "C4",
          "midi": 60,
          "time": 45.74999999999998,
          "velocity": 0.6299212598425197,
          "duration": 0.12395833333333428
        },
        {
          "name": "E5",
          "midi": 76,
          "time": 45.99999999999998,
          "velocity": 0.6299212598425197,
          "duration": 0.12395833333333428
        },
        {
          "name": "C5",
          "midi": 72,
          "time": 46.12499999999998,
          "velocity": 0.6299212598425197,
          "duration": 0.12395833333333428
        },
        {
          "name": "G4",
          "midi": 67,
          "time": 46.37499999999998,
          "velocity": 0.6299212598425197,
          "duration": 0.24895833333333428
        },
        {
          "name": "G#4",
          "midi": 68,
          "time": 46.74999999999998,
          "velocity": 0.6299212598425197,
          "duration": 0.24895833333333428
        },
        {
          "name": "A4",
          "midi": 69,
          "time": 46.99999999999998,
          "velocity": 0.6299212598425197,
          "duration": 0.12395833333333428
        },
        {
          "name": "F5",
          "midi": 77,
          "time": 47.12499999999998,
          "velocity": 0.6299212598425197,
          "duration": 0.12395833333333428
        },
        {
          "name": "F5",
          "midi": 77,
          "time": 47.37499999999998,
          "velocity": 0.6299212598425197,
          "duration": 0.12395833333333428
        },
        {
          "name": "A4",
          "midi": 69,
          "time": 47.49999999999998,
          "velocity": 0.6299212598425197,
          "duration": 0.12395833333333428
        },
        {
          "name": "C4",
          "midi": 60,
          "time": 47.74999999999998,
          "velocity": 0.6299212598425197,
          "duration": 0.12395833333333428
        },
        {
          "name": "B4",
          "midi": 71,
          "time": 47.99999999999998,
          "velocity": 0.6299212598425197,
          "duration": 0.12395833333333428
        },
        {
          "name": "G4",
          "midi": 67,
          "time": 47.99999999999998,
          "velocity": 0.6299212598425197,
          "duration": 0.12395833333333428
        },
        {
          "name": "F5",
          "midi": 77,
          "time": 48.12499999999998,
          "velocity": 0.6299212598425197,
          "duration": 0.12395833333333428
        },
        {
          "name": "A4",
          "midi": 69,
          "time": 48.12499999999998,
          "velocity": 0.6299212598425197,
          "duration": 0.12395833333333428
        },
        {
          "name": "F5",
          "midi": 77,
          "time": 48.37499999999998,
          "velocity": 0.6299212598425197,
          "duration": 0.12395833333333428
        },
        {
          "name": "A4",
          "midi": 69,
          "time": 48.37499999999998,
          "velocity": 0.6299212598425197,
          "duration": 0.12395833333333428
        },
        {
          "name": "F5",
          "midi": 77,
          "time": 48.49999999999998,
          "velocity": 0.6299212598425197,
          "duration": 0.16562499999999858
        },
        {
          "name": "A4",
          "midi": 69,
          "time": 48.49999999999998,
          "velocity": 0.6299212598425197,
          "duration": 0.16562499999999858
        },
        {
          "name": "E5",
          "midi": 76,
          "time": 48.66666666666664,
          "velocity": 0.6299212598425197,
          "duration": 0.16562499999999858
        },
        {
          "name": "G4",
          "midi": 67,
          "time": 48.66666666666664,
          "velocity": 0.6299212598425197,
          "duration": 0.16562499999999858
        },
        {
          "name": "D5",
          "midi": 74,
          "time": 48.83333333333331,
          "velocity": 0.6299212598425197,
          "duration": 0.16562499999999858
        },
        {
          "name": "F4",
          "midi": 65,
          "time": 48.83333333333331,
          "velocity": 0.6299212598425197,
          "duration": 0.16562499999999858
        },
        {
          "name": "C5",
          "midi": 72,
          "time": 48.99999999999997,
          "velocity": 0.6299212598425197,
          "duration": 0.12395833333333428
        },
        {
          "name": "E4",
          "midi": 64,
          "time": 48.99999999999997,
          "velocity": 0.6299212598425197,
          "duration": 0.12395833333333428
        },
        {
          "name": "G4",
          "midi": 67,
          "time": 49.12499999999997,
          "velocity": 0.6299212598425197,
          "duration": 0.12395833333333428
        },
        {
          "name": "G4",
          "midi": 67,
          "time": 49.37499999999997,
          "velocity": 0.6299212598425197,
          "duration": 0.12395833333333428
        },
        {
          "name": "C4",
          "midi": 60,
          "time": 49.49999999999997,
          "velocity": 0.6299212598425197,
          "duration": 0.24895833333333428
        },
        {
          "name": "E5",
          "midi": 76,
          "time": 49.99999999999997,
          "velocity": 0.6299212598425197,
          "duration": 0.12395833333333428
        },
        {
          "name": "C5",
          "midi": 72,
          "time": 50.12499999999997,
          "velocity": 0.6299212598425197,
          "duration": 0.12395833333333428
        },
        {
          "name": "G4",
          "midi": 67,
          "time": 50.37499999999997,
          "velocity": 0.6299212598425197,
          "duration": 0.24895833333333428
        },
        {
          "name": "G#4",
          "midi": 68,
          "time": 50.74999999999997,
          "velocity": 0.6299212598425197,
          "duration": 0.24895833333333428
        },
        {
          "name": "A4",
          "midi": 69,
          "time": 50.99999999999997,
          "velocity": 0.6299212598425197,
          "duration": 0.12395833333333428
        },
        {
          "name": "F5",
          "midi": 77,
          "time": 51.12499999999997,
          "velocity": 0.6299212598425197,
          "duration": 0.12395833333333428
        },
        {
          "name": "F5",
          "midi": 77,
          "time": 51.37499999999997,
          "velocity": 0.6299212598425197,
          "duration": 0.12395833333333428
        },
        {
          "name": "A4",
          "midi": 69,
          "time": 51.49999999999997,
          "velocity": 0.6299212598425197,
          "duration": 0.12395833333333428
        },
        {
          "name": "C4",
          "midi": 60,
          "time": 51.74999999999997,
          "velocity": 0.6299212598425197,
          "duration": 0.12395833333333428
        },
        {
          "name": "B4",
          "midi": 71,
          "time": 51.99999999999997,
          "velocity": 0.6299212598425197,
          "duration": 0.16562499999999858
        },
        {
          "name": "G4",
          "midi": 67,
          "time": 51.99999999999997,
          "velocity": 0.6299212598425197,
          "duration": 0.16562499999999858
        },
        {
          "name": "A5",
          "midi": 81,
          "time": 52.166666666666636,
          "velocity": 0.6299212598425197,
          "duration": 0.16562499999999858
        },
        {
          "name": "F5",
          "midi": 77,
          "time": 52.166666666666636,
          "velocity": 0.6299212598425197,
          "duration": 0.16562499999999858
        },
        {
          "name": "A5",
          "midi": 81,
          "time": 52.3333333333333,
          "velocity": 0.6299212598425197,
          "duration": 0.16562499999999858
        },
        {
          "name": "F5",
          "midi": 77,
          "time": 52.3333333333333,
          "velocity": 0.6299212598425197,
          "duration": 0.16562499999999858
        },
        {
          "name": "A5",
          "midi": 81,
          "time": 52.499999999999964,
          "velocity": 0.6299212598425197,
          "duration": 0.16562499999999858
        },
        {
          "name": "F5",
          "midi": 77,
          "time": 52.499999999999964,
          "velocity": 0.6299212598425197,
          "duration": 0.16562499999999858
        },
        {
          "name": "G5",
          "midi": 79,
          "time": 52.66666666666663,
          "velocity": 0.6299212598425197,
          "duration": 0.16562499999999858
        },
        {
          "name": "B4",
          "midi": 71,
          "time": 52.66666666666663,
          "velocity": 0.6299212598425197,
          "duration": 0.16562499999999858
        },
        {
          "name": "F5",
          "midi": 77,
          "time": 52.83333333333329,
          "velocity": 0.6299212598425197,
          "duration": 0.16562499999999858
        },
        {
          "name": "E5",
          "midi": 76,
          "time": 52.99999999999996,
          "velocity": 0.6299212598425197,
          "duration": 0.12395833333333428
        },
        {
          "name": "C5",
          "midi": 72,
          "time": 53.12499999999996,
          "velocity": 0.6299212598425197,
          "duration": 0.12395833333333428
        },
        {
          "name": "A4",
          "midi": 69,
          "time": 53.37499999999996,
          "velocity": 0.6299212598425197,
          "duration": 0.12395833333333428
        },
        {
          "name": "G4",
          "midi": 67,
          "time": 53.49999999999996,
          "velocity": 0.6299212598425197,
          "duration": 0.12395833333333428
        },
        {
          "name": "C4",
          "midi": 60,
          "time": 53.74999999999996,
          "velocity": 0.6299212598425197,
          "duration": 0.12395833333333428
        },
        {
          "name": "E5",
          "midi": 76,
          "time": 53.99999999999996,
          "velocity": 0.6299212598425197,
          "duration": 0.12395833333333428
        },
        {
          "name": "C5",
          "midi": 72,
          "time": 54.12499999999996,
          "velocity": 0.6299212598425197,
          "duration": 0.12395833333333428
        },
        {
          "name": "G4",
          "midi": 67,
          "time": 54.37499999999996,
          "velocity": 0.6299212598425197,
          "duration": 0.24895833333333428
        },
        {
          "name": "G#4",
          "midi": 68,
          "time": 54.74999999999996,
          "velocity": 0.6299212598425197,
          "duration": 0.24895833333333428
        },
        {
          "name": "A4",
          "midi": 69,
          "time": 54.99999999999996,
          "velocity": 0.6299212598425197,
          "duration": 0.12395833333333428
        },
        {
          "name": "F5",
          "midi": 77,
          "time": 55.12499999999996,
          "velocity": 0.6299212598425197,
          "duration": 0.12395833333333428
        },
        {
          "name": "F5",
          "midi": 77,
          "time": 55.37499999999996,
          "velocity": 0.6299212598425197,
          "duration": 0.12395833333333428
        },
        {
          "name": "A4",
          "midi": 69,
          "time": 55.49999999999996,
          "velocity": 0.6299212598425197,
          "duration": 0.12395833333333428
        },
        {
          "name": "C4",
          "midi": 60,
          "time": 55.74999999999996,
          "velocity": 0.6299212598425197,
          "duration": 0.12395833333333428
        },
        {
          "name": "B4",
          "midi": 71,
          "time": 55.99999999999996,
          "velocity": 0.6299212598425197,
          "duration": 0.12395833333333428
        },
        {
          "name": "G4",
          "midi": 67,
          "time": 55.99999999999996,
          "velocity": 0.6299212598425197,
          "duration": 0.12395833333333428
        },
        {
          "name": "F5",
          "midi": 77,
          "time": 56.12499999999996,
          "velocity": 0.6299212598425197,
          "duration": 0.12395833333333428
        },
        {
          "name": "A4",
          "midi": 69,
          "time": 56.12499999999996,
          "velocity": 0.6299212598425197,
          "duration": 0.12395833333333428
        },
        {
          "name": "F5",
          "midi": 77,
          "time": 56.37499999999996,
          "velocity": 0.6299212598425197,
          "duration": 0.12395833333333428
        },
        {
          "name": "A4",
          "midi": 69,
          "time": 56.37499999999996,
          "velocity": 0.6299212598425197,
          "duration": 0.12395833333333428
        },
        {
          "name": "F5",
          "midi": 77,
          "time": 56.49999999999996,
          "velocity": 0.6299212598425197,
          "duration": 0.16562499999999858
        },
        {
          "name": "A4",
          "midi": 69,
          "time": 56.49999999999996,
          "velocity": 0.6299212598425197,
          "duration": 0.16562499999999858
        },
        {
          "name": "E5",
          "midi": 76,
          "time": 56.66666666666662,
          "velocity": 0.6299212598425197,
          "duration": 0.16562499999999858
        },
        {
          "name": "G4",
          "midi": 67,
          "time": 56.66666666666662,
          "velocity": 0.6299212598425197,
          "duration": 0.16562499999999858
        },
        {
          "name": "D5",
          "midi": 74,
          "time": 56.833333333333286,
          "velocity": 0.6299212598425197,
          "duration": 0.16562499999999858
        },
        {
          "name": "F4",
          "midi": 65,
          "time": 56.833333333333286,
          "velocity": 0.6299212598425197,
          "duration": 0.16562499999999858
        },
        {
          "name": "C5",
          "midi": 72,
          "time": 56.99999999999995,
          "velocity": 0.6299212598425197,
          "duration": 0.12395833333333428
        },
        {
          "name": "E4",
          "midi": 64,
          "time": 56.99999999999995,
          "velocity": 0.6299212598425197,
          "duration": 0.12395833333333428
        },
        {
          "name": "G4",
          "midi": 67,
          "time": 57.12499999999995,
          "velocity": 0.6299212598425197,
          "duration": 0.12395833333333428
        },
        {
          "name": "G4",
          "midi": 67,
          "time": 57.37499999999995,
          "velocity": 0.6299212598425197,
          "duration": 0.12395833333333428
        },
        {
          "name": "C4",
          "midi": 60,
          "time": 57.49999999999995,
          "velocity": 0.6299212598425197,
          "duration": 0.24895833333333428
        },
        {
          "name": "C5",
          "midi": 72,
          "time": 57.99999999999995,
          "velocity": 0.6299212598425197,
          "duration": 0.12395833333333428
        },
        {
          "name": "E4",
          "midi": 64,
          "time": 57.99999999999995,
          "velocity": 0.6299212598425197,
          "duration": 0.12395833333333428
        },
        {
          "name": "C5",
          "midi": 72,
          "time": 58.12499999999995,
          "velocity": 0.6299212598425197,
          "duration": 0.12395833333333428
        },
        {
          "name": "C5",
          "midi": 72,
          "time": 58.37499999999995,
          "velocity": 0.6299212598425197,
          "duration": 0.12395833333333428
        },
        {
          "name": "C5",
          "midi": 72,
          "time": 58.62499999999995,
          "velocity": 0.6299212598425197,
          "duration": 0.12395833333333428
        },
        {
          "name": "D5",
          "midi": 74,
          "time": 58.74999999999995,
          "velocity": 0.6299212598425197,
          "duration": 0.12395833333333428
        },
        {
          "name": "E5",
          "midi": 76,
          "time": 58.99999999999995,
          "velocity": 0.6299212598425197,
          "duration": 0.12395833333333428
        },
        {
          "name": "C5",
          "midi": 72,
          "time": 59.12499999999995,
          "velocity": 0.6299212598425197,
          "duration": 0.12395833333333428
        },
        {
          "name": "A4",
          "midi": 69,
          "time": 59.37499999999995,
          "velocity": 0.6299212598425197,
          "duration": 0.12395833333333428
        },
        {
          "name": "G4",
          "midi": 67,
          "time": 59.49999999999995,
          "velocity": 0.6299212598425197,
          "duration": 0.12395833333333428
        },
        {
          "name": "C4",
          "midi": 60,
          "time": 59.74999999999995,
          "velocity": 0.6299212598425197,
          "duration": 0.12395833333333428
        },
        {
          "name": "C5",
          "midi": 72,
          "time": 59.99999999999995,
          "velocity": 0.6299212598425197,
          "duration": 0.12395833333333428
        },
        {
          "name": "E4",
          "midi": 64,
          "time": 59.99999999999995,
          "velocity": 0.6299212598425197,
          "duration": 0.12395833333333428
        },
        {
          "name": "C5",
          "midi": 72,
          "time": 60.12499999999995,
          "velocity": 0.6299212598425197,
          "duration": 0.12395833333333428
        },
        {
          "name": "C5",
          "midi": 72,
          "time": 60.37499999999995,
          "velocity": 0.6299212598425197,
          "duration": 0.12395833333333428
        },
        {
          "name": "C5",
          "midi": 72,
          "time": 60.62499999999995,
          "velocity": 0.6299212598425197,
          "duration": 0.12395833333333428
        },
        {
          "name": "D5",
          "midi": 74,
          "time": 60.74999999999995,
          "velocity": 0.6299212598425197,
          "duration": 0.12395833333333428
        },
        {
          "name": "E5",
          "midi": 76,
          "time": 60.87499999999995,
          "velocity": 0.6299212598425197,
          "duration": 0.12395833333333428
        },
        {
          "name": "G4",
          "midi": 67,
          "time": 60.99999999999995,
          "velocity": 0.6299212598425197,
          "duration": 0.12395833333333428
        },
        {
          "name": "C4",
          "midi": 60,
          "time": 61.37499999999995,
          "velocity": 0.6299212598425197,
          "duration": 0.12395833333333428
        },
        {
          "name": "C4",
          "midi": 60,
          "time": 61.74999999999995,
          "velocity": 0.6299212598425197,
          "duration": 0.12395833333333428
        },
        {
          "name": "C5",
          "midi": 72,
          "time": 61.99999999999995,
          "velocity": 0.6299212598425197,
          "duration": 0.12395833333333428
        },
        {
          "name": "E4",
          "midi": 64,
          "time": 61.99999999999995,
          "velocity": 0.6299212598425197,
          "duration": 0.12395833333333428
        },
        {
          "name": "C5",
          "midi": 72,
          "time": 62.12499999999995,
          "velocity": 0.6299212598425197,
          "duration": 0.12395833333333428
        },
        {
          "name": "C5",
          "midi": 72,
          "time": 62.37499999999995,
          "velocity": 0.6299212598425197,
          "duration": 0.12395833333333428
        },
        {
          "name": "C5",
          "midi": 72,
          "time": 62.62499999999995,
          "velocity": 0.6299212598425197,
          "duration": 0.12395833333333428
        },
        {
          "name": "D5",
          "midi": 74,
          "time": 62.74999999999995,
          "velocity": 0.6299212598425197,
          "duration": 0.12395833333333428
        },
        {
          "name": "E5",
          "midi": 76,
          "time": 62.99999999999995,
          "velocity": 0.6299212598425197,
          "duration": 0.12395833333333428
        },
        {
          "name": "C5",
          "midi": 72,
          "time": 63.12499999999995,
          "velocity": 0.6299212598425197,
          "duration": 0.12395833333333428
        },
        {
          "name": "A4",
          "midi": 69,
          "time": 63.37499999999995,
          "velocity": 0.6299212598425197,
          "duration": 0.12395833333333428
        },
        {
          "name": "G4",
          "midi": 67,
          "time": 63.49999999999995,
          "velocity": 0.6299212598425197,
          "duration": 0.12395833333333428
        },
        {
          "name": "C4",
          "midi": 60,
          "time": 63.74999999999995,
          "velocity": 0.6299212598425197,
          "duration": 0.12395833333333428
        },
        {
          "name": "E5",
          "midi": 76,
          "time": 63.99999999999995,
          "velocity": 0.6299212598425197,
          "duration": 0.12395833333332718
        },
        {
          "name": "C5",
          "midi": 72,
          "time": 63.99999999999995,
          "velocity": 0.6299212598425197,
          "duration": 0.12395833333332718
        },
        {
          "name": "E5",
          "midi": 76,
          "time": 64.12499999999994,
          "velocity": 0.6299212598425197,
          "duration": 0.12395833333333428
        },
        {
          "name": "C5",
          "midi": 72,
          "time": 64.12499999999994,
          "velocity": 0.6299212598425197,
          "duration": 0.12395833333333428
        },
        {
          "name": "E5",
          "midi": 76,
          "time": 64.37499999999994,
          "velocity": 0.6299212598425197,
          "duration": 0.12395833333333428
        },
        {
          "name": "C5",
          "midi": 72,
          "time": 64.37499999999994,
          "velocity": 0.6299212598425197,
          "duration": 0.12395833333333428
        },
        {
          "name": "C5",
          "midi": 72,
          "time": 64.62499999999994,
          "velocity": 0.6299212598425197,
          "duration": 0.12395833333333428
        },
        {
          "name": "E5",
          "midi": 76,
          "time": 64.74999999999994,
          "velocity": 0.6299212598425197,
          "duration": 0.12395833333333428
        },
        {
          "name": "G5",
          "midi": 79,
          "time": 64.99999999999994,
          "velocity": 0.6299212598425197,
          "duration": 0.24895833333333428
        },
        {
          "name": "B4",
          "midi": 71,
          "time": 64.99999999999994,
          "velocity": 0.6299212598425197,
          "duration": 0.24895833333333428
        },
        {
          "name": "G4",
          "midi": 67,
          "time": 65.49999999999994,
          "velocity": 0.6299212598425197,
          "duration": 0.24895833333333428
        },
        {
          "name": "B3",
          "midi": 59,
          "time": 65.49999999999994,
          "velocity": 0.6299212598425197,
          "duration": 0.24895833333333428
        },
        {
          "name": "E5",
          "midi": 76,
          "time": 65.99999999999994,
          "velocity": 0.6299212598425197,
          "duration": 0.12395833333333428
        },
        {
          "name": "C5",
          "midi": 72,
          "time": 66.12499999999994,
          "velocity": 0.6299212598425197,
          "duration": 0.12395833333333428
        },
        {
          "name": "G4",
          "midi": 67,
          "time": 66.37499999999994,
          "velocity": 0.6299212598425197,
          "duration": 0.24895833333333428
        },
        {
          "name": "G#4",
          "midi": 68,
          "time": 66.74999999999994,
          "velocity": 0.6299212598425197,
          "duration": 0.24895833333333428
        },
        {
          "name": "A4",
          "midi": 69,
          "time": 66.99999999999994,
          "velocity": 0.6299212598425197,
          "duration": 0.12395833333333428
        },
        {
          "name": "F5",
          "midi": 77,
          "time": 67.12499999999994,
          "velocity": 0.6299212598425197,
          "duration": 0.12395833333333428
        },
        {
          "name": "F5",
          "midi": 77,
          "time": 67.37499999999994,
          "velocity": 0.6299212598425197,
          "duration": 0.12395833333333428
        },
        {
          "name": "A4",
          "midi": 69,
          "time": 67.49999999999994,
          "velocity": 0.6299212598425197,
          "duration": 0.12395833333333428
        },
        {
          "name": "C4",
          "midi": 60,
          "time": 67.74999999999994,
          "velocity": 0.6299212598425197,
          "duration": 0.12395833333333428
        },
        {
          "name": "B4",
          "midi": 71,
          "time": 67.99999999999994,
          "velocity": 0.6299212598425197,
          "duration": 0.16562500000000568
        },
        {
          "name": "G4",
          "midi": 67,
          "time": 67.99999999999994,
          "velocity": 0.6299212598425197,
          "duration": 0.16562500000000568
        },
        {
          "name": "A5",
          "midi": 81,
          "time": 68.16666666666661,
          "velocity": 0.6299212598425197,
          "duration": 0.16562500000000568
        },
        {
          "name": "F5",
          "midi": 77,
          "time": 68.16666666666661,
          "velocity": 0.6299212598425197,
          "duration": 0.16562500000000568
        },
        {
          "name": "A5",
          "midi": 81,
          "time": 68.33333333333329,
          "velocity": 0.6299212598425197,
          "duration": 0.16562500000000568
        },
        {
          "name": "F5",
          "midi": 77,
          "time": 68.33333333333329,
          "velocity": 0.6299212598425197,
          "duration": 0.16562500000000568
        },
        {
          "name": "A5",
          "midi": 81,
          "time": 68.49999999999996,
          "velocity": 0.6299212598425197,
          "duration": 0.16562500000000568
        },
        {
          "name": "F5",
          "midi": 77,
          "time": 68.49999999999996,
          "velocity": 0.6299212598425197,
          "duration": 0.16562500000000568
        },
        {
          "name": "G5",
          "midi": 79,
          "time": 68.66666666666663,
          "velocity": 0.6299212598425197,
          "duration": 0.16562500000000568
        },
        {
          "name": "B4",
          "midi": 71,
          "time": 68.66666666666663,
          "velocity": 0.6299212598425197,
          "duration": 0.16562500000000568
        },
        {
          "name": "F5",
          "midi": 77,
          "time": 68.8333333333333,
          "velocity": 0.6299212598425197,
          "duration": 0.16562500000000568
        },
        {
          "name": "E5",
          "midi": 76,
          "time": 68.99999999999997,
          "velocity": 0.6299212598425197,
          "duration": 0.12395833333333428
        },
        {
          "name": "C5",
          "midi": 72,
          "time": 69.12499999999997,
          "velocity": 0.6299212598425197,
          "duration": 0.12395833333333428
        },
        {
          "name": "A4",
          "midi": 69,
          "time": 69.37499999999997,
          "velocity": 0.6299212598425197,
          "duration": 0.12395833333333428
        },
        {
          "name": "G4",
          "midi": 67,
          "time": 69.49999999999997,
          "velocity": 0.6299212598425197,
          "duration": 0.12395833333333428
        },
        {
          "name": "C4",
          "midi": 60,
          "time": 69.74999999999997,
          "velocity": 0.6299212598425197,
          "duration": 0.12395833333333428
        },
        {
          "name": "E5",
          "midi": 76,
          "time": 69.99999999999997,
          "velocity": 0.6299212598425197,
          "duration": 0.12395833333333428
        },
        {
          "name": "C5",
          "midi": 72,
          "time": 70.12499999999997,
          "velocity": 0.6299212598425197,
          "duration": 0.12395833333333428
        },
        {
          "name": "G4",
          "midi": 67,
          "time": 70.37499999999997,
          "velocity": 0.6299212598425197,
          "duration": 0.24895833333333428
        },
        {
          "name": "G#4",
          "midi": 68,
          "time": 70.74999999999997,
          "velocity": 0.6299212598425197,
          "duration": 0.24895833333333428
        },
        {
          "name": "A4",
          "midi": 69,
          "time": 70.99999999999997,
          "velocity": 0.6299212598425197,
          "duration": 0.12395833333333428
        },
        {
          "name": "F5",
          "midi": 77,
          "time": 71.12499999999997,
          "velocity": 0.6299212598425197,
          "duration": 0.12395833333333428
        },
        {
          "name": "F5",
          "midi": 77,
          "time": 71.37499999999997,
          "velocity": 0.6299212598425197,
          "duration": 0.12395833333333428
        },
        {
          "name": "A4",
          "midi": 69,
          "time": 71.49999999999997,
          "velocity": 0.6299212598425197,
          "duration": 0.12395833333333428
        },
        {
          "name": "C4",
          "midi": 60,
          "time": 71.74999999999997,
          "velocity": 0.6299212598425197,
          "duration": 0.12395833333333428
        },
        {
          "name": "B4",
          "midi": 71,
          "time": 71.99999999999997,
          "velocity": 0.6299212598425197,
          "duration": 0.12395833333333428
        },
        {
          "name": "G4",
          "midi": 67,
          "time": 71.99999999999997,
          "velocity": 0.6299212598425197,
          "duration": 0.12395833333333428
        },
        {
          "name": "F5",
          "midi": 77,
          "time": 72.12499999999997,
          "velocity": 0.6299212598425197,
          "duration": 0.12395833333333428
        },
        {
          "name": "A4",
          "midi": 69,
          "time": 72.12499999999997,
          "velocity": 0.6299212598425197,
          "duration": 0.12395833333333428
        },
        {
          "name": "F5",
          "midi": 77,
          "time": 72.37499999999997,
          "velocity": 0.6299212598425197,
          "duration": 0.12395833333333428
        },
        {
          "name": "A4",
          "midi": 69,
          "time": 72.37499999999997,
          "velocity": 0.6299212598425197,
          "duration": 0.12395833333333428
        },
        {
          "name": "F5",
          "midi": 77,
          "time": 72.49999999999997,
          "velocity": 0.6299212598425197,
          "duration": 0.16562500000000568
        },
        {
          "name": "A4",
          "midi": 69,
          "time": 72.49999999999997,
          "velocity": 0.6299212598425197,
          "duration": 0.16562500000000568
        },
        {
          "name": "E5",
          "midi": 76,
          "time": 72.66666666666664,
          "velocity": 0.6299212598425197,
          "duration": 0.16562500000000568
        },
        {
          "name": "G4",
          "midi": 67,
          "time": 72.66666666666664,
          "velocity": 0.6299212598425197,
          "duration": 0.16562500000000568
        },
        {
          "name": "D5",
          "midi": 74,
          "time": 72.83333333333331,
          "velocity": 0.6299212598425197,
          "duration": 0.16562500000000568
        },
        {
          "name": "F4",
          "midi": 65,
          "time": 72.83333333333331,
          "velocity": 0.6299212598425197,
          "duration": 0.16562500000000568
        },
        {
          "name": "C5",
          "midi": 72,
          "time": 72.99999999999999,
          "velocity": 0.6299212598425197,
          "duration": 0.12395833333333428
        },
        {
          "name": "E4",
          "midi": 64,
          "time": 72.99999999999999,
          "velocity": 0.6299212598425197,
          "duration": 0.12395833333333428
        },
        {
          "name": "G4",
          "midi": 67,
          "time": 73.12499999999999,
          "velocity": 0.6299212598425197,
          "duration": 0.12395833333333428
        },
        {
          "name": "G4",
          "midi": 67,
          "time": 73.37499999999999,
          "velocity": 0.6299212598425197,
          "duration": 0.12395833333333428
        },
        {
          "name": "C4",
          "midi": 60,
          "time": 73.49999999999999,
          "velocity": 0.6299212598425197,
          "duration": 0.24895833333333428
        }
      ],
      "controlChanges": {
        "7": [
          {
            "number": 7,
            "time": 0.0020833333333333333,
            "value": 0.7874015748031497
          }
        ],
        "10": [
          {
            "number": 10,
            "time": 0.004166666666666667,
            "value": 0.5039370078740157
          }
        ],
        "91": [
          {
            "number": 91,
            "time": 0.00625,
            "value": 0.23622047244094488
          }
        ],
        "93": [
          {
            "number": 93,
            "time": 0.008333333333333333,
            "value": 0.23622047244094488
          }
        ]
      },
      "id": 0,
      "instrumentNumber": 40,
      "instrument": "violin",
      "instrumentFamily": "strings",
      "channelNumber": 0,
      "isPercussion": false
    }
  ]
}